<svg width="364" height="364" viewBox="0 0 364 364" fill="none" xmlns="http://www.w3.org/2000/svg">
<path d="M224.799 143.941V188.554C224.75 188.616 224.709 188.685 224.68 188.76C223.677 193.594 220.287 196.37 215.373 196.37H150.832C145.269 196.37 141.446 192.525 141.446 186.955C141.446 173.147 141.446 159.339 141.446 145.529C141.446 139.962 145.284 136.143 150.854 136.125C155.908 136.125 160.944 136.125 165.991 136.125C166.101 136.143 166.214 136.14 166.322 136.114C166.43 136.089 166.533 136.042 166.623 135.976C166.713 135.911 166.789 135.828 166.847 135.732C166.904 135.637 166.942 135.531 166.959 135.421C167.377 134.049 167.836 132.688 168.312 131.334C168.799 129.873 169.738 128.605 170.993 127.713C172.248 126.822 173.755 126.353 175.294 126.374C180.505 126.357 185.714 126.357 190.922 126.374C192.464 126.351 193.973 126.82 195.23 127.712C196.488 128.605 197.428 129.875 197.915 131.338C198.377 132.637 198.828 133.944 199.215 135.269C199.406 135.915 199.684 136.146 200.388 136.143C205.489 136.107 210.59 136.114 215.691 136.143C218.835 136.143 221.424 137.399 223.15 140.027C223.926 141.175 224.269 142.619 224.799 143.941ZM159.504 164.597C159.5 169.267 160.88 173.833 163.471 177.718C166.062 181.603 169.747 184.633 174.059 186.424C178.372 188.215 183.119 188.686 187.7 187.779C192.281 186.872 196.49 184.627 199.794 181.328C203.099 178.029 205.351 173.823 206.266 169.244C207.181 164.665 206.717 159.917 204.934 155.601C203.15 151.286 200.127 147.596 196.246 144.998C192.365 142.401 187.802 141.013 183.132 141.009C176.874 141.016 170.874 143.502 166.446 147.923C162.017 152.344 159.521 158.34 159.504 164.597ZM154.641 142.637C153.8 142.637 152.962 142.616 152.114 142.637C151.469 142.637 150.85 142.894 150.394 143.35C149.937 143.806 149.681 144.425 149.681 145.071C149.681 145.716 149.937 146.335 150.394 146.791C150.85 147.247 151.469 147.504 152.114 147.504C153.764 147.54 155.417 147.536 157.067 147.504C157.697 147.479 158.292 147.212 158.729 146.758C159.166 146.304 159.41 145.699 159.41 145.069C159.41 144.439 159.166 143.833 158.729 143.379C158.292 142.925 157.697 142.658 157.067 142.634C156.266 142.619 155.453 142.637 154.641 142.637ZM212.431 142.637C211.948 142.635 211.474 142.777 211.071 143.044C210.668 143.311 210.354 143.692 210.168 144.139C209.982 144.585 209.933 145.077 210.026 145.551C210.12 146.026 210.353 146.461 210.695 146.803C211.037 147.145 211.473 147.378 211.947 147.472C212.421 147.566 212.913 147.516 213.359 147.33C213.806 147.144 214.187 146.83 214.454 146.427C214.721 146.024 214.863 145.551 214.861 145.067C214.851 144.425 214.592 143.813 214.139 143.359C213.685 142.906 213.073 142.647 212.431 142.637Z" fill="#C0C0C0"/>
<path d="M201.839 164.587C201.846 168.289 200.754 171.911 198.702 174.994C196.651 178.076 193.731 180.482 190.313 181.905C186.895 183.329 183.131 183.707 179.498 182.992C175.865 182.277 172.525 180.501 169.901 177.888C167.277 175.275 165.487 171.943 164.756 168.313C164.026 164.683 164.388 160.917 165.797 157.493C167.206 154.069 169.599 151.139 172.673 149.074C175.747 147.01 179.364 145.903 183.067 145.894C188.032 145.894 192.795 147.86 196.313 151.364C199.831 154.867 201.818 159.622 201.839 164.587ZM170.089 164.587C170.083 167.16 170.84 169.678 172.264 171.822C173.688 173.966 175.716 175.64 178.09 176.633C180.465 177.625 183.08 177.892 185.607 177.399C188.133 176.907 190.457 175.677 192.284 173.865C194.112 172.053 195.362 169.74 195.876 167.218C196.39 164.696 196.146 162.078 195.174 159.695C194.201 157.312 192.545 155.27 190.413 153.828C188.282 152.385 185.771 151.607 183.197 151.59C179.737 151.576 176.413 152.935 173.955 155.37C171.498 157.805 170.107 161.116 170.089 164.576V164.587Z" fill="#C0C0C0"/>
<path d="M183.074 172.756C181.463 172.749 179.89 172.264 178.555 171.362C177.219 170.46 176.181 169.182 175.573 167.69C174.964 166.198 174.812 164.56 175.135 162.981C175.459 161.403 176.244 159.956 177.39 158.823C178.536 157.691 179.993 156.924 181.575 156.621C183.158 156.317 184.795 156.489 186.279 157.117C187.763 157.744 189.028 158.797 189.913 160.144C190.798 161.49 191.264 163.069 191.251 164.68C191.23 166.833 190.358 168.89 188.827 170.403C187.295 171.916 185.227 172.762 183.074 172.756Z" fill="#C0C0C0"/>
<path d="M138.663 211.153V217.893H139.893V214.923H142.743V217.893H143.973V211.153H142.743V213.853H139.893V211.153H138.663ZM149.152 213.903H146.612V212.163H149.302V211.153H145.382V217.893H149.452V216.883H146.612V214.903H149.152V213.903ZM151.819 217.893H153.049V212.183H154.989V211.153H149.899V212.183H151.819V217.893ZM157.853 211.153V217.893H159.223L160.923 215.043C161.353 214.323 161.803 213.483 162.123 212.713H162.143C162.063 213.583 162.053 214.443 162.053 215.503V217.893H163.193V211.153H161.943L160.163 214.173C159.723 214.933 159.283 215.743 158.933 216.503L158.913 216.493C158.963 215.593 158.993 214.603 158.993 213.533V211.153H157.853ZM164.641 212.453C165.021 212.253 165.571 212.043 166.091 212.043C166.771 212.043 167.201 212.373 167.201 212.923C167.201 213.533 166.601 213.943 165.821 213.943H165.291V214.863H165.821C166.561 214.863 167.421 215.083 167.421 215.943C167.421 216.583 166.921 217.003 166.041 217.003C165.451 217.003 164.801 216.773 164.471 216.593L164.181 217.543C164.731 217.863 165.431 218.003 166.091 218.003C167.341 218.003 168.721 217.463 168.721 216.003C168.721 215.073 168.001 214.473 167.111 214.373V214.353C167.901 214.163 168.481 213.573 168.481 212.733C168.481 211.723 167.641 211.043 166.301 211.043C165.451 211.043 164.811 211.283 164.341 211.573L164.641 212.453ZM172.588 211.043C170.688 211.043 169.388 212.503 169.388 214.573C169.388 216.553 170.588 218.003 172.488 218.003C174.348 218.003 175.718 216.713 175.718 214.453C175.718 212.533 174.558 211.043 172.588 211.043ZM172.558 212.033C173.788 212.033 174.418 213.233 174.418 214.503C174.418 215.913 173.748 217.013 172.558 217.013C171.378 217.013 170.688 215.923 170.688 214.553C170.688 213.163 171.338 212.033 172.558 212.033ZM176.779 211.153V217.873C177.089 217.913 177.599 217.963 178.289 217.963C179.269 217.963 180.259 217.753 180.869 217.193C181.239 216.843 181.469 216.343 181.469 215.703C181.469 214.943 181.139 214.403 180.649 214.073C180.159 213.723 179.489 213.563 178.829 213.563C178.579 213.563 178.229 213.583 177.999 213.613V212.163H180.939V211.153H176.779ZM177.999 214.533C178.199 214.513 178.419 214.493 178.609 214.493C179.019 214.493 179.429 214.583 179.729 214.813C180.009 215.003 180.179 215.303 180.179 215.723C180.179 216.093 180.049 216.393 179.829 216.603C179.549 216.883 179.099 217.023 178.649 217.023C178.399 217.023 178.179 217.013 177.999 216.983V214.533ZM182.531 217.893H183.751V215.353C183.911 215.383 184.121 215.393 184.351 215.393C185.221 215.393 185.991 215.163 186.481 214.673C186.861 214.313 187.061 213.783 187.061 213.143C187.061 212.513 186.801 211.983 186.401 211.653C185.971 211.293 185.311 211.103 184.411 211.103C183.581 211.103 182.971 211.163 182.531 211.243V217.893ZM183.751 212.103C183.881 212.073 184.121 212.043 184.461 212.043C185.311 212.043 185.831 212.443 185.831 213.193C185.831 213.983 185.271 214.433 184.351 214.433C184.101 214.433 183.901 214.423 183.751 214.383V212.103ZM190.894 215.983L191.504 217.893H192.824L190.634 211.153H189.064L186.904 217.893H188.174L188.754 215.983H190.894ZM188.954 215.053L189.474 213.393C189.594 212.993 189.694 212.523 189.794 212.133H189.814C189.914 212.523 190.024 212.983 190.154 213.393L190.684 215.053H188.954ZM193.288 211.153L195.628 214.203C194.658 214.353 194.228 215.003 193.918 215.913C193.698 216.553 193.518 217.253 193.228 217.893H194.478C194.688 217.443 194.828 216.843 194.978 216.363C195.248 215.553 195.568 214.953 196.508 214.953H196.778V217.893H197.968V214.953H198.228C199.168 214.953 199.498 215.553 199.758 216.363C199.908 216.843 200.048 217.443 200.268 217.893H201.518C201.228 217.253 201.068 216.553 200.838 215.883C200.528 214.973 200.098 214.303 199.118 214.203L201.458 211.153H200.028L198.168 214.043H197.968V211.153H196.778V214.043H196.588L194.728 211.153H193.288ZM206.066 213.903H203.526V212.163H206.216V211.153H202.296V217.893H206.366V216.883H203.526V214.903H206.066V213.903ZM207.443 211.153V217.893H208.673V214.923H211.523V217.893H212.753V211.153H211.523V213.853H208.673V211.153H207.443ZM214.162 211.153V217.893H215.532L217.232 215.043C217.662 214.323 218.112 213.483 218.432 212.713H218.452C218.372 213.583 218.362 214.443 218.362 215.503V217.893H219.502V211.153H218.252L216.472 214.173C216.032 214.933 215.592 215.743 215.242 216.503L215.222 216.493C215.272 215.593 215.302 214.603 215.302 213.533V211.153H214.162ZM221.62 217.893C221.73 217.693 221.79 217.543 221.85 217.363C222.07 216.763 222.25 215.853 222.69 215.413C222.9 215.213 223.17 215.123 223.52 215.123H224.02V217.893H225.24V211.243C224.77 211.163 224.11 211.103 223.45 211.103C222.59 211.103 221.84 211.253 221.37 211.623C220.97 211.943 220.71 212.423 220.71 213.033C220.71 213.983 221.37 214.543 222.16 214.683V214.713C221.95 214.783 221.75 214.903 221.6 215.053C221.07 215.573 220.9 216.433 220.62 217.203C220.53 217.453 220.43 217.693 220.31 217.893H221.62ZM224.02 214.203C223.86 214.223 223.62 214.223 223.38 214.223C222.57 214.223 221.94 213.833 221.94 213.123C221.94 212.323 222.56 212.033 223.3 212.033C223.65 212.033 223.89 212.073 224.02 212.103V214.203ZM166.296 229.893H167.526V224.183H169.466V223.153H164.376V224.183H166.296V229.893ZM172.768 223.043C170.868 223.043 169.568 224.503 169.568 226.573C169.568 228.553 170.768 230.003 172.668 230.003C174.528 230.003 175.898 228.713 175.898 226.453C175.898 224.533 174.738 223.043 172.768 223.043ZM172.738 224.033C173.968 224.033 174.598 225.233 174.598 226.503C174.598 227.913 173.928 229.013 172.738 229.013C171.558 229.013 170.868 227.923 170.868 226.553C170.868 225.163 171.518 224.033 172.738 224.033ZM176.959 229.873C177.269 229.913 177.789 229.963 178.469 229.963C179.699 229.963 180.489 229.753 180.969 229.333C181.359 229.013 181.619 228.543 181.619 227.943C181.619 227.013 180.969 226.453 180.259 226.273V226.253C180.989 225.983 181.379 225.413 181.379 224.793C181.379 224.223 181.099 223.783 180.679 223.533C180.219 223.213 179.659 223.103 178.749 223.103C178.059 223.103 177.349 223.163 176.959 223.243V229.873ZM178.179 224.063C178.309 224.033 178.519 224.013 178.879 224.013C179.659 224.013 180.139 224.303 180.139 224.933C180.139 225.503 179.659 225.903 178.809 225.903H178.179V224.063ZM178.179 226.803H178.789C179.639 226.803 180.319 227.123 180.319 227.903C180.319 228.733 179.619 229.033 178.829 229.033C178.549 229.033 178.339 229.023 178.179 229.003V226.803ZM186.211 227.983L186.821 229.893H188.141L185.951 223.153H184.381L182.221 229.893H183.491L184.071 227.983H186.211ZM184.271 227.053L184.791 225.393C184.911 224.993 185.011 224.523 185.111 224.133H185.131C185.231 224.523 185.341 224.983 185.471 225.393L186.001 227.053H184.271ZM189.079 229.893H190.299V227.353C190.459 227.383 190.669 227.393 190.899 227.393C191.769 227.393 192.539 227.163 193.029 226.673C193.409 226.313 193.609 225.783 193.609 225.143C193.609 224.513 193.349 223.983 192.949 223.653C192.519 223.293 191.859 223.103 190.959 223.103C190.129 223.103 189.519 223.163 189.079 223.243V229.893ZM190.299 224.103C190.429 224.073 190.669 224.043 191.009 224.043C191.859 224.043 192.379 224.443 192.379 225.193C192.379 225.983 191.819 226.433 190.899 226.433C190.649 226.433 190.449 226.423 190.299 226.383V224.103ZM197.442 227.983L198.052 229.893H199.372L197.182 223.153H195.612L193.452 229.893H194.722L195.302 227.983H197.442ZM195.502 227.053L196.022 225.393C196.142 224.993 196.242 224.523 196.342 224.133H196.362C196.462 224.523 196.572 224.983 196.702 225.393L197.232 227.053H195.502Z" fill="#C0C0C0"/>
</svg>
